{"title":"Diary.of.a.Sex.Offender.2010 DVDRip Xvid LKRG","uid":6058021,"size":673648803,"categoryP":"video","categoryS":"movies","magnet":"?xt=urn:btih:a423e03185ba016d1a1798e7617d2fd0436fb882&amp;dn=Diary.of.a.Sex.Offender.2010+DVDRip+Xvid+LKRG&amp;tr=udp%3A%2F%2Ftracker.openbittorrent.com%3A80&amp;tr=udp%3A%2F%2Fopen.demonii.com%3A1337&amp;tr=udp%3A%2F%2Ftracker.coppersurfer.tk%3A6969&amp;tr=udp%3A%2F%2Fexodus.desync.com%3A6969","seeders":0,"leechers":1,"uploader":".BONE.","files":2,"time":1292986997,"description":"Format;Avi\n\nFile Size:642mb\n\nVideo: ID : 0\nFormat : MPEG-4 Visual\nFormat profile : Advanced Simple@L5\nFormat settings, BVOP : Yes\nFormat settings, QPel : No\nFormat settings, GMC : No warppoints\nFormat settings, Matrix : Custom\nCodec ID : XVID\nCodec ID/Hint : XviD\nDuration : 1h 8mn\nBit rate : 1 114 Kbps\nWidth : 700 pixels\nHeight : 386 pixels\nDisplay aspect ratio : 16:9\nFrame rate : 29.970 fps\nColor space : YUV\nChroma subsampling : 4:2:0\nBit depth : 8 bits\nScan type : Progressive\nBits/(Pixel*Frame) : 0.138\nStream size : 543 MiB (85%)\nWriting library : XviD 1.2.1 (UTC 2008-12-04)\n\n\nAudio: ID : 1\nFormat : AC-3\nFormat/Info : Audio Coding 3\nMode extension : CM (complete main)\nCodec ID : 2000\nDuration : 1h 8mn\nBit rate mode : Constant\nBit rate : 192 Kbps\nChannel(s) : 2 channels\nChannel positions : Front: L R\nSampling rate : 48.0 KHz\nBit depth : 16 bits\nStream size : 93.6 MiB (15%)\nAlignment : Aligned on interleaves\nInterleave, duration : 33 ms (1.00 video frame)\nInterleave, preload duration : 512 ms\n\nDuration:1:08\n\nRelease Date:2010\n\nLanguage:English\n\nPlot: A Repulsive yet Fascinating Glimpse into the Mind of a Deranged Killer\n\nMichael Regardie is a lonely, delusional and sick religious zealot of his\nown invented faith a faith that justifies hideous rituals of murder, rape\nand sexual torture. Absolution from his escalating nihilism and debauchery\nmay lie in his latest victim. But as salvation seems at hand, a specter\nfrom his past demands revenge\n\nDepraved serial killer Michael Regardie invents a religion that justifies\nhis unspeakable crimes against humanity, but finds his bloody quest for\nredemption unexpectedly complicated by the sudden reappearance of a\nmalevolent apparition from the past\n\n\nCast:","torrent":{"xt":"urn:btih:a423e03185ba016d1a1798e7617d2fd0436fb882","amp;dn":"Diary.of.a.Sex.Offender.2010+DVDRip+Xvid+LKRG","amp;tr":["udp%3A%2F%2Ftracker.openbittorrent.com%3A80","udp%3A%2F%2Fopen.demonii.com%3A1337","udp%3A%2F%2Ftracker.coppersurfer.tk%3A6969","udp%3A%2F%2Fexodus.desync.com%3A6969"],"infoHash":"a423e03185ba016d1a1798e7617d2fd0436fb882","infoHashBuffer":{"type":"Buffer","data":[164,35,224,49,133,186,1,109,26,23,152,231,97,125,47,208,67,111,184,130]},"announce":[],"urlList":[]}}